<svg xmlns="http://www.w3.org/2000/svg" width="64" height="64" viewBox="0 0 64 64">
    <g fill="none">
        <path d="M0 0H64V64H0z"/>
        <path fill="#014FA8" d="M47 33c6.075 0 11 4.925 11 11s-4.925 11-11 11-11-4.925-11-11 4.925-11 11-11zm7.099 5.487c-2.583-3.333-7.134-4.426-10.949-2.63-3.814 1.797-5.87 6-4.947 10.115.924 4.114 4.58 7.035 8.797 7.028 3.068.007 5.927-1.554 7.582-4.137 1.655-2.584 1.876-5.833.587-8.618L46 49.415l-4.707-4.708 1.414-1.414L46 46.586zM16 9v9h-2v-3H8v28h24.05c-.021.332-.05.662-.05 1 0 .338.029.668.05 1H6V13h8V9h2zm24 0v4h8v16.05c-.332-.021-.662-.05-1-.05-.338 0-.668.029-1 .05V15h-6v3h-2V9h2zm2 13v2H12v-2h30zm-6-9v2H18v-2h18z"/>
    </g>
</svg>
