<svg xmlns="http://www.w3.org/2000/svg" width="64" height="64" viewBox="0 0 64 64">
    <g fill="none">
        <path d="M0 0H64V64H0z"/>
        <path fill="#014FA8" d="M55 14c2.21 0 4 1.79 4 4v28c0 2.21-1.79 4-4 4H9c-2.21 0-4-1.79-4-4V18c0-2.21 1.79-4 4-4zm-36 2H9c-1.104.001-1.999.896-2 2v10h5v2H7v16c.001 1.104.896 1.999 2 2h10V35h2v13h34c1.104-.001 1.999-.896 2-2V30H28v-2h29V18c-.001-1.104-.896-1.999-2-2H21v5h-2v-5zm22 26v2h-2v-2h2zm4 0v2h-2v-2h2zm4 0v2h-2v-2h2zm4 0v2h-2v-2h2zM20 23.38c1.09-1.262 2.85-1.711 4.412-1.127 1.562.585 2.594 2.08 2.588 3.747 0 1.061-.421 2.079-1.171 2.83C25.079 29.58 24.06 30 23 30h-1.065c1.25 1.564 3.015 2.634 4.98 3.02l-.4 1.959c-2.724-.53-5.122-2.13-6.658-4.442-1.536 2.311-3.933 3.91-6.657 4.441l-.4-1.959c1.965-.386 3.73-1.456 4.98-3.02H17c-1.842.003-3.447-1.253-3.885-3.042-.44-1.788.402-3.645 2.036-4.494 1.634-.85 3.637-.471 4.849.916zm3 .62c-1.104.001-1.999.896-2 2v2h2c1.105 0 2-.895 2-2s-.895-2-2-2zm-6 0c-1.105 0-2 .895-2 2s.895 2 2 2h1.855l.002-.012.143.001V26c0-1.105-.895-2-2-2z"/>
    </g>
</svg>
