<svg xmlns="http://www.w3.org/2000/svg" width="64" height="64" viewBox="0 0 64 64">
    <g fill="none">
        <path d="M0 0H64V64H0z"/>
        <path fill="#014FA8" d="M19.766 26.178L37.5 43.91l-15.313 7.585v.004h-.008L3 61l11.874-24.662v-.033h.016l4.876-10.127zM17.674 51.5h-7.88l-2.468 5.125L17.674 51.5zm13.32-6.598H12.97L10.757 49.5H21.71l9.283-4.598zM51 41c.828 0 1.5.672 1.5 1.5S51.828 44 51 44s-1.5-.672-1.5-1.5.672-1.5 1.5-1.5zm-21.935-2.695H16.147l-2.213 4.597h19.729l-4.598-4.597zM44 34v3h3v2h-3v3h-2v-3h-3v-2h3v-3h2zm-23.654-4.415l-3.236 6.72h9.955l-6.72-6.72zm32.539-6.712l.311.003c2.11-.001 4.121.887 5.54 2.447 2.864 3.116 2.304 6.279.954 8.04-1.065 1.385-2.716 2.194-4.464 2.187-.936-.001-1.859-.228-2.689-.663l.925-1.773c1.573.867 3.545.457 4.64-.967 1.193-1.557.88-3.602-.838-5.47-1.051-1.16-2.548-1.816-4.114-1.801-7.133-.2-17.204 9.416-18.062 10.249l-.058.057-1.407-1.422c.458-.453 11.299-11.115 19.573-10.884zM30.659 6.247c.35.307 8.486 7.699.236 24.2l-1.79-.894c7.519-15.037.534-21.535.232-21.804zM23 13c2.21 0 4 1.79 4 4s-1.79 4-4 4-4-1.79-4-4 1.79-4 4-4zm19 0v3h3v2h-3v3h-2v-3h-3v-2h3v-3h2zm-19 2c-1.104.001-1.999.896-2 2 0 1.105.895 2 2 2s2-.895 2-2-.895-2-2-2zM55.317 3.184L55.126 8.3l4.106 3.057-4.925 1.4-1.639 4.85-2.852-4.252-5.119-.06 3.162-4.026-1.525-4.887 4.806 1.763 4.177-2.96zm-2.15 3.975l-.87.617-.858.608-.987-.362-1.002-.367.318 1.018.313 1.004-.65.827-.658.839 1.067.012 1.052.013.585.873.595.886.341-1.01.337-.997 1.01-.287 1.027-.292-.855-.637-.844-.628.038-1.05.04-1.067zM23 6c1.105 0 2 .895 2 2s-.895 2-2 2-2-.895-2-2 .895-2 2-2z"/>
    </g>
</svg>
